<svg width="38" height="58" viewBox="0 0 38 58" fill="none" xmlns="http://www.w3.org/2000/svg">
<g clip-path="url(#clip0_330_47)">
<path d="M12.7534 28.7246C14.7159 30.9794 16.7289 33.2787 18.7236 35.6187C12.6469 42.4989 7.33695 48.8541 3.28082 57.155C1.60653 52.9337 0.496792 48.33 0.269897 43.8403C0.545181 42.2384 6.50357 35.7921 12.7534 28.7246Z" fill="black"/>
<path d="M25.938 10.0924C21.5819 8.13976 15.5482 8.01493 11.2996 9.84372C8.31338 11.1276 6.20896 13.3765 6.1853 16.6308C6.1853 15.0517 6.1853 0.245075 18.7086 0.248047C31.3275 0.251019 31.4534 14.7822 31.4544 17.2193C31.3942 13.9055 29.1113 11.514 25.9391 10.0924H25.938Z" fill="black"/>
<path d="M31.4534 17.2197C31.5103 20.3423 29.592 24.2842 24.5799 29.0067C22.4432 26.6767 20.3366 24.3555 18.4526 22.1513C23.3551 16.3182 27.0241 11.5332 25.938 10.0928C29.1102 11.5144 31.3931 13.9059 31.4534 17.2197Z" fill="black"/>
<path d="M11.3103 9.86554C10.7619 12.363 13.9889 16.932 18.4526 22.1509C20.3366 24.3551 22.4431 26.6763 24.5798 29.0064C29.3253 34.1846 34.2126 39.4045 37.1397 43.487C37.2838 43.6872 34.917 52.5903 34.2449 57.1554C30.3199 49.7174 24.5927 42.4964 18.7236 35.6191C16.7289 33.2791 14.7158 30.9798 12.7534 28.725C12.3254 28.2336 11.8996 27.7442 11.477 27.2568C7.67567 22.9563 6.16483 19.4236 6.18526 16.6309C6.20892 13.3765 8.31334 11.1277 11.2995 9.84375L11.3103 9.86554Z" fill="black"/>
<path d="M11.3103 9.86582C10.7619 12.3633 13.9889 16.9323 18.4526 22.1512C20.3366 24.3554 22.4431 26.6766 24.5798 29.0066M24.5798 29.0066C29.3252 34.1849 34.2126 39.4048 37.1397 43.4873C37.2838 43.6874 34.917 52.5906 34.2449 57.1556C30.3199 49.7177 24.5927 42.4966 18.7236 35.6194C16.7289 33.2794 14.7158 30.9801 12.7534 28.7253C12.3254 28.2339 11.8996 27.7445 11.477 27.2571C7.67567 22.9566 6.16483 19.4238 6.18526 16.6311C6.20892 13.3768 8.31334 11.1279 11.2995 9.84403C15.5481 8.01524 21.5818 8.14007 25.938 10.0927C29.1102 11.5143 31.3931 13.9058 31.4533 17.2196C31.5103 20.3422 29.5919 24.2841 24.5798 29.0066Z" stroke="#780000" stroke-width="1.17435" stroke-miterlimit="10"/>
<path d="M12.7534 28.7246C6.50357 35.7921 0.545181 42.2384 0.269897 43.8403C0.496792 48.33 1.60653 52.9337 3.28082 57.155C7.33695 48.8541 12.6469 42.4989 18.7236 35.6187" stroke="#780000" stroke-width="1.17435" stroke-miterlimit="10"/>
<path d="M25.9272 10.0781C25.9305 10.0831 25.9337 10.087 25.938 10.092C27.0241 11.5324 23.3551 16.3174 18.4526 22.1505" stroke="#780000" stroke-width="1.17435" stroke-miterlimit="10"/>
<path d="M31.4544 17.2748V17.2193C31.4544 14.7822 31.3275 0.251019 18.7086 0.248047C6.1853 0.245075 6.1853 15.0517 6.1853 16.6308" stroke="#780000" stroke-width="1.17435" stroke-miterlimit="10"/>
</g>
<defs>
<clipPath id="clip0_330_47">
<rect width="37.415" height="58" fill="white"/>
</clipPath>
</defs>
</svg>
