<svg width="14" height="10" viewBox="0 0 14 10" fill="none" xmlns="http://www.w3.org/2000/svg">
<path fill-rule="evenodd" clip-rule="evenodd" d="M11.5962 4.96273L9.98052 3.04647C9.92009 2.97968 9.8716 2.89912 9.83793 2.8096C9.80426 2.72007 9.78611 2.6234 9.78457 2.52537C9.78302 2.42733 9.7981 2.32994 9.82891 2.239C9.85973 2.14806 9.90565 2.06543 9.96392 1.99604C10.0222 1.92665 10.0916 1.87193 10.1681 1.83513C10.2446 1.79834 10.3265 1.78023 10.409 1.78188C10.4915 1.78353 10.5729 1.80491 10.6483 1.84474C10.7237 1.88458 10.7916 1.94205 10.8479 2.01373L13.5134 5.17507L13.9481 5.69061L13.5144 6.20698L10.8549 9.3734C10.7386 9.50248 10.5846 9.57284 10.4254 9.56966C10.2662 9.56647 10.1143 9.48999 10.0016 9.35633C9.8889 9.22266 9.82425 9.04225 9.82126 8.8531C9.81827 8.66395 9.87718 8.48083 9.98558 8.34232L11.5976 6.42298L3.5037 6.43071C2.79757 6.43138 2.12004 6.09869 1.62017 5.50582C1.12029 4.91296 0.839014 4.10848 0.838213 3.26937C0.837412 2.43025 1.11715 1.62524 1.6159 1.03142C2.11464 0.437601 2.79153 0.103618 3.49766 0.102944L5.13611 0.10138C5.29906 0.101225 5.45541 0.178 5.57077 0.314815C5.68612 0.45163 5.75104 0.637278 5.75122 0.83092C5.7514 1.02456 5.68685 1.21033 5.57175 1.34737C5.45666 1.4844 5.30045 1.56148 5.1375 1.56163L3.49906 1.5632C3.11883 1.56356 2.75435 1.7434 2.4858 2.06315C2.21724 2.38289 2.06661 2.81636 2.06705 3.26819C2.06748 3.72002 2.21893 4.1532 2.4881 4.47244C2.75726 4.79168 3.12209 4.97082 3.50231 4.97045L11.5962 4.96273Z" fill="black"/>
</svg>
